<?xml version="1.0"?>
<svg xmlns="http://www.w3.org/2000/svg" width="377" height="63" viewBox="0 0 377 63"  fill="none">
<path d="M6.11222 61.1256C5.00289 61.1256 4.00022 60.635 3.10422 59.6536C2.20822 58.715 1.56822 57.4136 1.18422 55.7496C0.970889 54.8536 0.885556 53.8083 0.928223 52.6136C0.928223 51.4616 1.09889 50.2243 1.44022 48.9016C1.82422 47.579 2.37889 46.235 3.10422 44.8696C3.82956 43.4616 4.83222 42.0963 6.11222 40.7736C5.47222 38.939 4.85356 37.083 4.25622 35.2056C3.70156 33.3283 3.29622 31.515 3.04022 29.7656C2.78422 27.9736 2.74156 26.267 2.91222 24.6456C3.08289 23.0243 3.59489 21.5736 4.44822 20.2936C5.42956 18.715 6.70956 17.2643 8.28822 15.9416C9.86689 14.619 11.5736 13.467 13.4082 12.4856C15.2856 11.5043 17.2269 10.6936 19.2322 10.0536C21.2802 9.37096 23.2642 8.92296 25.1842 8.70962C27.1469 8.45362 28.9602 8.41096 30.6242 8.58162C32.2882 8.75229 33.6962 9.15762 34.8482 9.79762C35.3176 10.0536 35.7869 10.4163 36.2562 10.8856C36.7682 11.355 37.1522 11.9523 37.4082 12.6776C37.7069 13.403 37.8136 14.2776 37.7282 15.3016C37.6429 16.3256 37.2589 17.5416 36.5762 18.9496C36.4909 19.1203 36.3416 19.2483 36.1282 19.3336C35.9576 19.3763 35.7869 19.355 35.6162 19.2696C35.4029 19.1843 35.2749 19.0563 35.2322 18.8856C35.1896 18.6723 35.2109 18.4803 35.2962 18.3096C36.9602 14.8536 36.5762 12.4216 34.1442 11.0136C33.0776 10.4163 31.7549 10.0536 30.1762 9.92562C28.6402 9.79762 26.9762 9.86162 25.1842 10.1176C23.3922 10.3736 21.5362 10.8216 19.6162 11.4616C17.6962 12.1016 15.8616 12.891 14.1122 13.8296C12.3629 14.7683 10.7416 15.8563 9.24822 17.0936C7.75489 18.2883 6.56022 19.611 5.66422 21.0616C4.93889 22.2136 4.49089 23.515 4.32022 24.9656C4.19222 26.3736 4.23489 27.8883 4.44822 29.5096C4.66156 31.0883 5.02422 32.7523 5.53622 34.5016C6.04822 36.2083 6.60289 37.915 7.20022 39.6216C8.82156 38.1283 10.7842 36.763 13.0882 35.5256C15.4349 34.2456 18.2722 33.179 21.6002 32.3256C22.0696 32.2403 22.3682 32.411 22.4962 32.8376C22.5816 33.307 22.4109 33.6056 21.9842 33.7336C18.6562 34.587 15.8189 35.675 13.4722 36.9976C11.1682 38.2776 9.24822 39.6643 7.71222 41.1576L8.28822 42.5656C8.88556 44.2723 9.44022 45.8936 9.95222 47.4296C10.5069 49.0083 10.9336 50.4803 11.2322 51.8456C11.5309 53.211 11.6589 54.4483 11.6162 55.5576C11.6162 56.7096 11.3602 57.7123 10.8482 58.5656C10.0802 59.931 8.73622 60.763 6.81622 61.0616C6.64556 61.1043 6.41089 61.1256 6.11222 61.1256ZM6.62422 42.3096C5.60022 43.5043 4.76822 44.699 4.12822 45.8936C3.53089 47.131 3.08289 48.3256 2.78422 49.4776C2.52822 50.6296 2.37889 51.7176 2.33622 52.7416C2.33622 53.7656 2.42156 54.6616 2.59222 55.4296C2.93356 56.8376 3.46689 57.9256 4.19222 58.6936C4.91756 59.4616 5.70689 59.7816 6.56022 59.6536C8.05356 59.3976 9.05622 58.8003 9.56822 57.8616C9.99489 57.179 10.1869 56.3043 10.1442 55.2376C10.1442 54.171 9.99489 52.9976 9.69622 51.7176C9.39756 50.4376 8.99222 49.051 8.48022 47.5576C7.96822 46.107 7.43489 44.6136 6.88022 43.0776C6.79489 42.7363 6.70956 42.4803 6.62422 42.3096ZM37.5547 32.7736C37.9387 32.475 38.2801 32.539 38.5787 32.9656C38.6641 33.1363 38.6854 33.3283 38.6427 33.5416C38.6427 33.7123 38.5574 33.8403 38.3867 33.9256C38.3014 34.011 37.7681 34.395 36.7867 35.0776C35.8054 35.7603 34.6107 36.4856 33.2027 37.2536C31.7947 38.0216 30.2801 38.7256 28.6587 39.3656C27.0801 40.0056 25.6294 40.3256 24.3067 40.3256C23.9654 40.3256 23.6667 40.3043 23.4107 40.2616C23.1547 40.219 22.8774 40.155 22.5787 40.0696C21.4694 39.6856 20.7867 38.8536 20.5307 37.5736C20.4027 36.891 20.4241 36.1443 20.5947 35.3336C20.7654 34.523 21.0427 33.7336 21.4267 32.9656C21.7681 32.1976 22.1947 31.4723 22.7067 30.7896C23.2187 30.107 23.7521 29.5523 24.3067 29.1256C25.0747 28.4856 25.7574 28.1443 26.3547 28.1016C26.9947 28.0163 27.5067 28.059 27.8907 28.2296C28.4454 28.443 28.7227 28.8483 28.7227 29.4456C28.6801 29.8723 28.4667 30.3203 28.0827 30.7896C27.6987 31.2163 27.2081 31.643 26.6107 32.0696C26.0561 32.4536 25.4161 32.8163 24.6907 33.1576C23.9654 33.499 23.2401 33.7763 22.5147 33.9896C22.0027 35.227 21.8107 36.3363 21.9387 37.3176C22.0667 38.043 22.4507 38.491 23.0907 38.6616C23.9867 39.003 25.0961 38.9816 26.4187 38.5976C27.7841 38.2136 29.1707 37.6803 30.5787 36.9976C31.9867 36.2723 33.3094 35.5256 34.5467 34.7576C35.8267 33.947 36.8294 33.2856 37.5547 32.7736ZM25.2027 30.2136C24.8614 30.4696 24.5627 30.7683 24.3067 31.1096C24.0507 31.4083 23.7947 31.7283 23.5387 32.0696C24.5201 31.643 25.3307 31.195 25.9707 30.7256C26.6534 30.2136 27.0801 29.8083 27.2507 29.5096C27.1654 29.5096 27.1014 29.5096 27.0587 29.5096C27.0161 29.467 26.9521 29.4456 26.8667 29.4456C26.5254 29.4456 26.2054 29.531 25.9067 29.7016C25.6507 29.8296 25.4161 30.0003 25.2027 30.2136ZM32.2412 45.5736C32.1559 45.5736 32.0279 45.531 31.8572 45.4456C31.5159 45.275 31.4306 44.955 31.6012 44.4856L37.5532 32.9656C37.6386 32.795 37.7666 32.6883 37.9372 32.6456C38.1506 32.603 38.3426 32.6243 38.5132 32.7096C38.9826 32.8803 39.0892 33.2003 38.8332 33.6696L35.6972 39.8136C36.6359 38.7896 37.6812 37.723 38.8332 36.6136C40.0279 35.4616 41.2226 34.4163 42.4172 33.4776C43.6546 32.539 44.8919 31.7496 46.1292 31.1096C47.3666 30.4696 48.5186 30.1283 49.5852 30.0856C50.9506 30.043 52.1026 30.5123 53.0412 31.4936C53.3399 31.8776 53.3186 32.219 52.9772 32.5176C52.8492 32.6456 52.6786 32.7096 52.4652 32.7096C52.2519 32.7096 52.0812 32.6456 51.9532 32.5176C51.3559 31.835 50.5879 31.515 49.6492 31.5576C48.6252 31.6003 47.4946 31.963 46.2572 32.6456C45.0626 33.3283 43.8466 34.1816 42.6092 35.2056C41.3719 36.187 40.1559 37.275 38.9612 38.4696C37.8092 39.6216 36.7852 40.7096 35.8892 41.7336C34.9932 42.715 34.2679 43.547 33.7132 44.2296C33.1159 44.9123 32.8172 45.275 32.8172 45.3176C32.6466 45.4883 32.4546 45.5736 32.2412 45.5736ZM72.0547 32.7736C72.4387 32.475 72.7801 32.539 73.0787 32.9656C73.1641 33.1363 73.1854 33.3283 73.1427 33.5416C73.1427 33.7123 73.0574 33.8403 72.8867 33.9256C72.8014 34.011 72.2681 34.395 71.2867 35.0776C70.3054 35.7603 69.1107 36.4856 67.7027 37.2536C66.2947 38.0216 64.7801 38.7256 63.1587 39.3656C61.5801 40.0056 60.1294 40.3256 58.8067 40.3256C58.4654 40.3256 58.1667 40.3043 57.9107 40.2616C57.6547 40.219 57.3774 40.155 57.0787 40.0696C55.9694 39.6856 55.2867 38.8536 55.0307 37.5736C54.9027 36.891 54.9241 36.1443 55.0947 35.3336C55.2654 34.523 55.5427 33.7336 55.9267 32.9656C56.2681 32.1976 56.6947 31.4723 57.2067 30.7896C57.7187 30.107 58.2521 29.5523 58.8067 29.1256C59.5747 28.4856 60.2574 28.1443 60.8547 28.1016C61.4947 28.0163 62.0067 28.059 62.3907 28.2296C62.9454 28.443 63.2227 28.8483 63.2227 29.4456C63.1801 29.8723 62.9667 30.3203 62.5827 30.7896C62.1987 31.2163 61.7081 31.643 61.1107 32.0696C60.5561 32.4536 59.9161 32.8163 59.1907 33.1576C58.4654 33.499 57.7401 33.7763 57.0147 33.9896C56.5027 35.227 56.3107 36.3363 56.4387 37.3176C56.5667 38.043 56.9507 38.491 57.5907 38.6616C58.4867 39.003 59.5961 38.9816 60.9187 38.5976C62.2841 38.2136 63.6707 37.6803 65.0787 36.9976C66.4867 36.2723 67.8094 35.5256 69.0467 34.7576C70.3267 33.947 71.3294 33.2856 72.0547 32.7736ZM59.7027 30.2136C59.3614 30.4696 59.0627 30.7683 58.8067 31.1096C58.5507 31.4083 58.2947 31.7283 58.0387 32.0696C59.0201 31.643 59.8307 31.195 60.4707 30.7256C61.1534 30.2136 61.5801 29.8083 61.7507 29.5096C61.6654 29.5096 61.6014 29.5096 61.5587 29.5096C61.5161 29.467 61.4521 29.4456 61.3667 29.4456C61.0254 29.4456 60.7054 29.531 60.4067 29.7016C60.1507 29.8296 59.9161 30.0003 59.7027 30.2136ZM66.6132 45.5736C66.5706 45.5736 66.4639 45.531 66.2932 45.4456C65.9519 45.3176 65.8239 45.0403 65.9092 44.6136C66.3786 43.163 66.9546 41.755 67.6372 40.3896C68.2772 38.9816 68.9172 37.7443 69.5572 36.6776C70.1972 35.5683 70.7519 34.6936 71.2212 34.0536C71.6906 33.371 71.9466 32.987 71.9892 32.9016C72.0746 32.731 72.2026 32.6456 72.3732 32.6456C72.5866 32.603 72.7786 32.6243 72.9492 32.7096C73.3759 33.0083 73.4399 33.3496 73.1412 33.7336C73.1412 33.7336 72.9919 33.947 72.6932 34.3736C72.4372 34.7576 72.0959 35.291 71.6692 35.9736C71.2426 36.6563 70.7732 37.4456 70.2612 38.3416C69.7492 39.2376 69.2586 40.1976 68.7892 41.2216C69.9412 39.9843 71.2852 38.555 72.8212 36.9336C74.3572 35.3123 75.9146 33.7976 77.4932 32.3896C79.1146 30.9816 80.6506 29.8083 82.1012 28.8696C83.5946 27.931 84.8319 27.5043 85.8132 27.5896C86.1546 27.6323 86.4319 27.739 86.6452 27.9096C86.8586 28.0376 87.0079 28.187 87.0932 28.3576C87.5199 28.9976 87.5839 29.8723 87.2852 30.9816C87.0292 32.091 86.6666 33.3283 86.1972 34.6936C86.0692 35.1203 85.8986 35.6323 85.6852 36.2296C85.5146 36.7843 85.3652 37.3176 85.2372 37.8296C85.1092 38.3416 85.0239 38.811 84.9812 39.2376C84.9812 39.6216 85.0666 39.835 85.2372 39.8776C85.7919 40.1336 86.6026 40.0696 87.6692 39.6856C88.7786 39.259 89.9732 38.683 91.2532 37.9576C92.5332 37.1896 93.8132 36.3363 95.0932 35.3976C96.4159 34.459 97.5679 33.5843 98.5492 32.7736C98.6772 32.6456 98.8266 32.603 98.9972 32.6456C99.2106 32.6456 99.3812 32.7096 99.5092 32.8376C99.8079 33.2216 99.7866 33.563 99.4452 33.8616C99.2746 34.0323 98.8692 34.3736 98.2292 34.8856C97.6319 35.355 96.8852 35.9096 95.9892 36.5496C95.0932 37.1896 94.1119 37.851 93.0452 38.5336C92.0212 39.1736 90.9972 39.7496 89.9732 40.2616C88.9492 40.731 87.9679 41.0723 87.0292 41.2856C86.0906 41.499 85.3012 41.4776 84.6612 41.2216C84.1919 41.051 83.8719 40.731 83.7012 40.2616C83.5732 39.7923 83.5519 39.259 83.6372 38.6616C83.7226 38.0216 83.8719 37.339 84.0852 36.6136C84.3412 35.8456 84.5972 35.0563 84.8532 34.2456C85.0239 33.7763 85.1946 33.2856 85.3652 32.7736C85.5359 32.2616 85.6639 31.771 85.7492 31.3016C85.8772 30.7896 85.9626 30.3416 86.0052 29.9576C86.0479 29.5736 86.0052 29.2963 85.8772 29.1256H85.8132C85.7706 29.1256 85.7279 29.1256 85.6852 29.1256C85.6852 29.083 85.6639 29.0616 85.6212 29.0616C84.8106 29.019 83.6372 29.531 82.1012 30.5976C80.6079 31.6643 78.9652 33.0296 77.1732 34.6936C75.4239 36.315 73.6532 38.0856 71.8612 40.0056C70.0692 41.9256 68.5119 43.6963 67.1892 45.3176C67.0186 45.4883 66.8266 45.5736 66.6132 45.5736ZM114.555 32.7736C114.939 32.475 115.28 32.539 115.579 32.9656C115.664 33.1363 115.685 33.3283 115.643 33.5416C115.643 33.7123 115.557 33.8403 115.387 33.9256C115.301 34.011 114.768 34.395 113.787 35.0776C112.805 35.7603 111.611 36.4856 110.203 37.2536C108.795 38.0216 107.28 38.7256 105.659 39.3656C104.08 40.0056 102.629 40.3256 101.307 40.3256C100.965 40.3256 100.667 40.3043 100.411 40.2616C100.155 40.219 99.8774 40.155 99.5787 40.0696C98.4694 39.6856 97.7867 38.8536 97.5307 37.5736C97.4027 36.891 97.4241 36.1443 97.5947 35.3336C97.7654 34.523 98.0427 33.7336 98.4267 32.9656C98.7681 32.1976 99.1947 31.4723 99.7067 30.7896C100.219 30.107 100.752 29.5523 101.307 29.1256C102.075 28.4856 102.757 28.1443 103.355 28.1016C103.995 28.0163 104.507 28.059 104.891 28.2296C105.445 28.443 105.723 28.8483 105.723 29.4456C105.68 29.8723 105.467 30.3203 105.083 30.7896C104.699 31.2163 104.208 31.643 103.611 32.0696C103.056 32.4536 102.416 32.8163 101.691 33.1576C100.965 33.499 100.24 33.7763 99.5147 33.9896C99.0027 35.227 98.8107 36.3363 98.9387 37.3176C99.0667 38.043 99.4507 38.491 100.091 38.6616C100.987 39.003 102.096 38.9816 103.419 38.5976C104.784 38.2136 106.171 37.6803 107.579 36.9976C108.987 36.2723 110.309 35.5256 111.547 34.7576C112.827 33.947 113.829 33.2856 114.555 32.7736ZM102.203 30.2136C101.861 30.4696 101.563 30.7683 101.307 31.1096C101.051 31.4083 100.795 31.7283 100.539 32.0696C101.52 31.643 102.331 31.195 102.971 30.7256C103.653 30.2136 104.08 29.8083 104.251 29.5096C104.165 29.5096 104.101 29.5096 104.059 29.5096C104.016 29.467 103.952 29.4456 103.867 29.4456C103.525 29.4456 103.205 29.531 102.907 29.7016C102.651 29.8296 102.416 30.0003 102.203 30.2136ZM179.942 0.837624C180.412 0.922956 180.604 1.20029 180.518 1.66962C180.092 3.97362 179.153 6.61896 177.702 9.60563C176.294 12.5496 174.566 15.643 172.518 18.8856C170.513 22.0856 168.252 25.3283 165.734 28.6136C163.26 31.899 160.721 35.0136 158.118 37.9576C155.558 40.859 152.998 43.483 150.438 45.8296C147.921 48.219 145.617 50.1176 143.526 51.5256C141.009 53.1896 138.982 54.0216 137.446 54.0216C137.105 54.0216 136.849 54.0003 136.678 53.9576C135.654 53.7016 134.844 53.1256 134.246 52.2296C133.649 51.2483 133.393 49.883 133.478 48.1336C133.564 46.427 133.841 44.507 134.31 42.3736C134.78 40.1976 135.377 37.8936 136.102 35.4616C136.87 32.987 137.66 30.5123 138.47 28.0376C139.11 26.0323 139.75 24.0056 140.39 21.9576C141.073 19.867 141.628 17.947 142.054 16.1976C142.481 14.4483 142.737 12.955 142.822 11.7176C142.908 10.4376 142.716 9.58429 142.246 9.15762C141.777 8.77362 141.201 8.58162 140.518 8.58162C139.878 8.58162 139.153 8.73096 138.342 9.02962C137.574 9.32829 136.764 9.71229 135.91 10.1816C135.1 10.651 134.31 11.163 133.542 11.7176C132.774 12.2723 132.07 12.827 131.43 13.3816C130.79 13.8936 130.278 14.3203 129.894 14.6616C129.51 14.9603 129.169 14.939 128.87 14.5976C128.529 14.2563 128.55 13.9363 128.934 13.6376C129.105 13.467 129.468 13.1256 130.022 12.6136C130.62 12.1016 131.324 11.547 132.134 10.9496C132.988 10.3096 133.905 9.69096 134.886 9.09362C135.91 8.49629 136.913 8.02696 137.894 7.68562C138.918 7.30162 139.878 7.13096 140.774 7.17362C141.713 7.17362 142.524 7.47229 143.206 8.06962C143.804 8.62429 144.145 9.47762 144.23 10.6296C144.316 11.739 144.188 13.1683 143.846 14.9176C143.505 16.6243 142.972 18.6083 142.246 20.8696C141.564 23.131 140.774 25.6696 139.878 28.4856C139.11 30.7896 138.364 33.1363 137.638 35.5256C136.913 37.8723 136.294 40.091 135.782 42.1816C135.313 44.2723 135.014 46.1283 134.886 47.7496C134.801 49.4136 135.014 50.6723 135.526 51.5256C135.868 52.0803 136.337 52.4216 136.934 52.5496C137.404 52.635 138.065 52.5496 138.918 52.2936C139.814 52.0803 141.073 51.4403 142.694 50.3736C144.785 49.0083 147.068 47.1523 149.542 44.8056C152.017 42.459 154.534 39.8563 157.094 36.9976C159.654 34.0963 162.15 31.0456 164.582 27.8456C167.057 24.603 169.297 21.403 171.302 18.2456C173.308 15.0883 174.993 12.059 176.358 9.15762C177.766 6.25629 178.684 3.67496 179.11 1.41362C179.196 0.858957 179.473 0.666957 179.942 0.837624ZM168.206 42.3096C167.609 42.267 167.161 42.139 166.862 41.9256C166.564 41.6696 166.35 41.435 166.222 41.2216C165.966 40.667 165.966 39.963 166.222 39.1096C166.478 38.2563 166.841 37.4243 167.31 36.6136C167.737 35.7603 168.185 34.9923 168.654 34.3096C169.124 33.5843 169.465 33.0936 169.678 32.8376C169.977 32.4536 170.318 32.411 170.702 32.7096C171.086 33.0083 171.129 33.3496 170.83 33.7336C170.318 34.3736 169.849 35.0563 169.422 35.7816C168.953 36.4643 168.569 37.1256 168.27 37.7656C167.929 38.4056 167.694 38.9816 167.566 39.4936C167.396 39.963 167.374 40.3256 167.502 40.5816C167.63 40.7523 167.865 40.8376 168.206 40.8376H168.334C169.23 40.8376 170.233 40.6456 171.342 40.2616C172.452 39.835 173.582 39.3443 174.734 38.7896C175.886 38.1923 176.996 37.5523 178.062 36.8696C179.172 36.1443 180.153 35.483 181.006 34.8856C181.86 34.2883 182.542 33.7976 183.054 33.4136C183.566 32.987 183.844 32.7523 183.886 32.7096C184.057 32.6243 184.228 32.5816 184.398 32.5816C184.612 32.5816 184.782 32.667 184.91 32.8376C185.209 33.2216 185.166 33.563 184.782 33.8616C184.697 33.9043 184.356 34.1603 183.758 34.6296C183.204 35.0563 182.478 35.5896 181.582 36.2296C180.729 36.827 179.726 37.4883 178.574 38.2136C177.422 38.939 176.249 39.6003 175.054 40.1976C173.902 40.795 172.729 41.307 171.534 41.7336C170.382 42.1176 169.316 42.3096 168.334 42.3096H168.206ZM171.086 30.2776C170.873 30.1923 170.766 30.1283 170.766 30.0856C170.681 30.043 170.638 29.9363 170.638 29.7656C170.638 29.6803 170.745 29.5736 170.958 29.4456C171.3 29.2323 171.748 29.083 172.302 28.9976C172.516 28.955 172.665 28.9763 172.75 29.0616C172.878 29.1043 172.942 29.2536 172.942 29.5096V29.6376L172.814 29.7656C172.729 29.851 172.644 29.9363 172.558 30.0216C172.516 30.107 172.473 30.1923 172.43 30.2776L172.238 30.4696C172.153 30.5123 172.004 30.5336 171.79 30.5336C171.449 30.4483 171.214 30.363 171.086 30.2776ZM224.954 20.4216C224.911 20.4216 224.591 20.3576 223.994 20.2296C223.396 20.059 222.586 19.8883 221.562 19.7176C220.538 19.5043 219.322 19.291 217.914 19.0776C216.506 18.8216 214.97 18.587 213.306 18.3736C211.77 21.019 210.02 24.091 208.058 27.5896C206.095 31.0883 204.111 34.779 202.106 38.6616C200.1 42.5443 198.159 46.5123 196.282 50.5656C194.404 54.619 192.783 58.523 191.418 62.2776C191.332 62.619 191.119 62.7896 190.778 62.7896C190.65 62.7896 190.564 62.7683 190.522 62.7256C190.052 62.5976 189.903 62.299 190.074 61.8296C191.226 58.6296 192.57 55.323 194.106 51.9096C195.642 48.4963 197.242 45.1043 198.906 41.7336C200.612 38.363 202.319 35.099 204.026 31.9416C205.732 28.7416 207.354 25.7976 208.89 23.1096C207.738 24.1763 206.436 25.2856 204.986 26.4376C203.535 27.5896 201.999 28.763 200.378 29.9576C198.799 31.1096 197.156 32.283 195.45 33.4776C193.786 34.6723 192.122 35.8456 190.458 36.9976C189.05 37.979 187.663 38.9603 186.298 39.9416C184.975 40.8803 183.738 41.7763 182.586 42.6296C182.5 43.227 182.394 43.803 182.266 44.3576C182.138 44.9123 181.946 45.4243 181.69 45.8936C180.836 47.515 179.791 48.795 178.554 49.7336C177.316 50.715 176.271 51.2056 175.418 51.2056C174.778 51.2056 174.33 50.971 174.074 50.5016C173.69 49.7336 174.01 48.6243 175.034 47.1736C175.503 46.5763 176.271 45.8296 177.338 44.9336C178.404 43.995 179.706 42.971 181.242 41.8616C181.242 41.691 181.263 41.5416 181.306 41.4136C181.306 41.243 181.306 41.0723 181.306 40.9016C181.391 39.8776 181.54 38.8323 181.754 37.7656C181.924 36.6563 182.266 35.5896 182.778 34.5656C183.29 33.499 184.058 32.5176 185.082 31.6216C186.106 30.683 187.492 29.8936 189.242 29.2536C189.711 29.083 190.031 29.2323 190.202 29.7016C190.33 30.1283 190.18 30.4483 189.754 30.6616C188.26 31.1736 187.066 31.8136 186.17 32.5816C185.316 33.307 184.634 34.1176 184.122 35.0136C183.652 35.9096 183.332 36.8483 183.162 37.8296C182.991 38.7683 182.863 39.7283 182.778 40.7096C183.802 39.9416 184.89 39.1523 186.042 38.3416C187.194 37.4883 188.388 36.635 189.626 35.7816C191.716 34.331 193.871 32.8163 196.09 31.2376C198.351 29.6163 200.484 28.0376 202.49 26.5016C204.538 24.923 206.372 23.4296 207.994 22.0216C209.615 20.571 210.852 19.2696 211.706 18.1176C209.743 17.8616 207.674 17.6483 205.498 17.4776C203.322 17.307 201.146 17.2216 198.97 17.2216C196.836 17.2216 194.746 17.307 192.698 17.4776C190.692 17.6483 188.836 17.9683 187.13 18.4376C185.466 18.907 183.994 19.547 182.714 20.3576C181.434 21.1683 180.474 22.171 179.834 23.3656C179.706 23.6216 179.492 23.7496 179.194 23.7496C179.151 23.7496 179.108 23.7496 179.066 23.7496C179.023 23.707 178.959 23.6856 178.874 23.6856C178.703 23.6003 178.596 23.4723 178.554 23.3016C178.468 23.0883 178.468 22.875 178.554 22.6616C179.279 21.2963 180.346 20.1656 181.754 19.2696C183.119 18.3736 184.719 17.6696 186.554 17.1576C188.388 16.6456 190.372 16.283 192.506 16.0696C194.682 15.8563 196.9 15.771 199.162 15.8136C201.466 15.8136 203.748 15.9203 206.01 16.1336C208.314 16.3043 210.49 16.5176 212.538 16.7736C213.946 14.3416 215.076 12.443 215.93 11.0776C216.826 9.71229 217.295 8.98696 217.338 8.90162C217.423 8.73096 217.551 8.62429 217.722 8.58162C217.935 8.53896 218.127 8.58162 218.298 8.70962C218.468 8.79496 218.575 8.94429 218.618 9.15762C218.66 9.32829 218.639 9.49896 218.554 9.66962C218.511 9.71229 218.084 10.395 217.274 11.7176C216.506 12.9976 215.46 14.747 214.138 16.9656C215.674 17.179 217.082 17.4136 218.362 17.6696C219.684 17.883 220.836 18.0963 221.818 18.3096C222.799 18.4803 223.588 18.6296 224.186 18.7576C224.783 18.8856 225.146 18.971 225.274 19.0136C225.487 19.0563 225.636 19.163 225.722 19.3336C225.85 19.4616 225.871 19.6323 225.786 19.8456C225.7 20.315 225.423 20.507 224.954 20.4216ZM180.41 45.2536C180.495 45.0403 180.58 44.827 180.666 44.6136C180.751 44.4003 180.815 44.1656 180.858 43.9096C179.748 44.763 178.788 45.531 177.978 46.2136C177.167 46.939 176.591 47.5363 176.25 48.0056C175.994 48.347 175.823 48.6243 175.738 48.8376C175.61 49.0936 175.524 49.2856 175.482 49.4136C175.439 49.5843 175.418 49.7123 175.418 49.7976C175.503 49.8403 175.738 49.7763 176.122 49.6056C176.463 49.4776 176.89 49.2216 177.402 48.8376C177.871 48.4963 178.383 48.027 178.938 47.4296C179.45 46.8323 179.94 46.107 180.41 45.2536ZM211.299 40.6456C210.445 40.6456 209.848 40.4963 209.507 40.1976C209.123 39.8563 208.867 39.5576 208.739 39.3016C208.525 38.875 208.461 38.4056 208.547 37.8936C208.589 37.339 208.739 36.8056 208.995 36.2936C209.208 35.739 209.507 35.2056 209.891 34.6936C210.232 34.139 210.616 33.6483 211.043 33.2216C212.024 32.283 213.027 31.6643 214.051 31.3656C215.117 31.067 216.099 31.131 216.995 31.5576C217.208 31.643 217.336 31.7923 217.379 32.0056C217.464 32.1763 217.464 32.347 217.379 32.5176C217.165 32.9443 216.845 33.0723 216.419 32.9016C215.949 32.6883 215.48 32.6243 215.011 32.7096C214.584 32.7523 214.157 32.8803 213.731 33.0936C213.347 33.2643 213.005 33.4776 212.707 33.7336C212.408 33.947 212.195 34.1176 212.067 34.2456C211.213 35.099 210.616 35.9523 210.275 36.8056C209.933 37.659 209.869 38.299 210.083 38.7256C210.296 39.1096 210.787 39.2803 211.555 39.2376C212.323 39.195 213.197 38.8536 214.179 38.2136C215.16 37.531 216.163 36.7416 217.187 35.8456C218.211 34.907 219.213 33.947 220.195 32.9656C221.176 31.9416 222.029 31.0456 222.755 30.2776C223.864 29.0403 224.589 28.2936 224.931 28.0376C225.315 27.739 225.677 27.6963 226.019 27.9096C226.36 28.123 226.445 28.4216 226.275 28.8056C226.147 29.1896 225.976 29.595 225.763 30.0216C224.909 31.643 224.483 33.1576 224.483 34.5656C224.483 35.931 224.781 36.827 225.379 37.2536C225.933 37.6376 226.851 37.5736 228.131 37.0616C229.453 36.507 231.139 35.1203 233.187 32.9016C233.485 32.5603 233.827 32.539 234.211 32.8376C234.552 33.179 234.573 33.5203 234.275 33.8616C232.867 35.355 231.629 36.4856 230.563 37.2536C229.496 37.979 228.557 38.4696 227.747 38.7256C226.979 38.9816 226.317 39.0456 225.763 38.9176C225.251 38.7896 224.845 38.619 224.547 38.4056C223.693 37.8083 223.181 36.891 223.011 35.6536C222.883 34.3736 223.075 32.987 223.587 31.4936C222.776 32.347 221.859 33.307 220.835 34.3736C219.853 35.3976 218.829 36.379 217.763 37.3176C216.696 38.2136 215.629 38.9816 214.563 39.6216C213.496 40.2616 212.515 40.603 211.619 40.6456H211.299ZM284.359 1.66962C286.578 2.39496 288.306 3.22696 289.543 4.16562C290.781 5.06162 291.677 6.00029 292.231 6.98162C292.829 7.96296 293.17 8.92296 293.255 9.86162C293.341 10.7576 293.319 11.547 293.191 12.2296C292.765 14.491 291.549 16.7523 289.543 19.0136C287.538 21.275 284.978 23.387 281.863 25.3496C278.749 27.2696 275.186 28.9336 271.175 30.3416C267.165 31.7496 262.919 32.731 258.439 33.2856C257.97 34.1816 257.522 35.0563 257.095 35.9096C256.669 36.763 256.263 37.5736 255.879 38.3416C257.842 39.835 260.061 41.4136 262.535 43.0776C265.053 44.699 267.655 46.1923 270.343 47.5576C273.031 48.9656 275.741 50.1176 278.471 51.0136C281.245 51.9523 283.89 52.4216 286.407 52.4216C286.877 52.4216 287.111 52.6776 287.111 53.1896C287.111 53.659 286.877 53.8936 286.407 53.8936C283.805 53.8936 281.074 53.4243 278.215 52.4856C275.399 51.5896 272.605 50.4376 269.831 49.0296C267.101 47.6216 264.477 46.0856 261.959 44.4216C259.442 42.7576 257.181 41.179 255.175 39.6856C253.469 43.2696 252.231 46.0856 251.463 48.1336C250.695 50.1816 250.311 51.2483 250.311 51.3336C250.141 51.6323 249.906 51.7816 249.607 51.7816H249.415C248.946 51.6536 248.797 51.355 248.967 50.8856C248.967 50.8003 249.351 49.691 250.119 47.5576C250.93 45.4243 252.231 42.5016 254.023 38.7896C252.146 37.3816 250.631 36.187 249.479 35.2056C248.327 34.1816 247.687 33.6056 247.559 33.4776C247.303 33.2643 247.239 32.987 247.367 32.6456C247.495 32.347 247.73 32.1976 248.071 32.1976C251.314 32.411 254.471 32.347 257.543 32.0056C259.421 28.5496 261.618 24.8376 264.135 20.8696C266.653 16.859 269.575 12.6776 272.903 8.32562C273.202 7.94162 273.543 7.89896 273.927 8.19762C274.098 8.32562 274.183 8.49629 274.183 8.70962C274.183 8.88029 274.141 9.05096 274.055 9.22162C270.855 13.3603 268.039 17.3283 265.607 21.1256C263.218 24.923 261.106 28.4856 259.271 31.8136C263.623 31.2163 267.698 30.1923 271.495 28.7416C275.293 27.291 278.621 25.627 281.479 23.7496C284.381 21.8723 286.727 19.9096 288.519 17.8616C290.311 15.771 291.378 13.8083 291.719 11.9736C291.975 10.6936 291.89 9.58429 291.463 8.64562C291.079 7.66429 290.482 6.81096 289.671 6.08562C288.903 5.36029 288.007 4.76296 286.983 4.29362C285.959 3.78162 284.935 3.35496 283.911 3.01362C282.461 2.54429 280.818 2.37362 278.983 2.50162C277.191 2.62962 275.314 2.94962 273.351 3.46162C271.389 3.97362 269.405 4.65629 267.399 5.50962C265.437 6.36296 263.559 7.32296 261.767 8.38962C260.018 9.41362 258.439 10.4803 257.031 11.5896C255.623 12.699 254.514 13.787 253.703 14.8536C253.405 15.2376 253.063 15.2803 252.679 14.9816C252.509 14.8963 252.402 14.747 252.359 14.5336C252.359 14.3203 252.423 14.1496 252.551 14.0216C253.405 12.8696 254.557 11.6963 256.007 10.5016C257.501 9.30696 259.165 8.17629 260.999 7.10962C262.877 6.04296 264.839 5.06162 266.887 4.16562C268.978 3.26962 271.047 2.56562 273.095 2.05362C275.186 1.49896 277.191 1.17896 279.111 1.09362C281.074 1.00829 282.823 1.20029 284.359 1.66962ZM256.711 33.4776C255.602 33.6056 254.493 33.691 253.383 33.7336C252.274 33.7763 251.165 33.7763 250.055 33.7336C250.61 34.203 251.271 34.7576 252.039 35.3976C252.807 36.0376 253.682 36.7203 254.663 37.4456L256.711 33.4776ZM295.68 32.7736C296.064 32.475 296.405 32.539 296.704 32.9656C296.789 33.1363 296.81 33.3283 296.768 33.5416C296.768 33.7123 296.682 33.8403 296.512 33.9256C296.426 34.011 295.893 34.395 294.912 35.0776C293.93 35.7603 292.736 36.4856 291.328 37.2536C289.92 38.0216 288.405 38.7256 286.784 39.3656C285.205 40.0056 283.754 40.3256 282.432 40.3256C282.09 40.3256 281.792 40.3043 281.536 40.2616C281.28 40.219 281.002 40.155 280.704 40.0696C279.594 39.6856 278.912 38.8536 278.656 37.5736C278.528 36.891 278.549 36.1443 278.72 35.3336C278.89 34.523 279.168 33.7336 279.552 32.9656C279.893 32.1976 280.32 31.4723 280.832 30.7896C281.344 30.107 281.877 29.5523 282.432 29.1256C283.2 28.4856 283.882 28.1443 284.48 28.1016C285.12 28.0163 285.632 28.059 286.016 28.2296C286.57 28.443 286.848 28.8483 286.848 29.4456C286.805 29.8723 286.592 30.3203 286.208 30.7896C285.824 31.2163 285.333 31.643 284.736 32.0696C284.181 32.4536 283.541 32.8163 282.816 33.1576C282.09 33.499 281.365 33.7763 280.64 33.9896C280.128 35.227 279.936 36.3363 280.064 37.3176C280.192 38.043 280.576 38.491 281.216 38.6616C282.112 39.003 283.221 38.9816 284.544 38.5976C285.909 38.2136 287.296 37.6803 288.704 36.9976C290.112 36.2723 291.434 35.5256 292.672 34.7576C293.952 33.947 294.954 33.2856 295.68 32.7736ZM283.328 30.2136C282.986 30.4696 282.688 30.7683 282.432 31.1096C282.176 31.4083 281.92 31.7283 281.664 32.0696C282.645 31.643 283.456 31.195 284.096 30.7256C284.778 30.2136 285.205 29.8083 285.376 29.5096C285.29 29.5096 285.226 29.5096 285.184 29.5096C285.141 29.467 285.077 29.4456 284.992 29.4456C284.65 29.4456 284.33 29.531 284.032 29.7016C283.776 29.8296 283.541 30.0003 283.328 30.2136ZM290.75 51.3336C290.153 51.3336 289.62 51.2056 289.15 50.9496C288.681 50.6936 288.34 50.331 288.126 49.8616C287.913 49.5203 287.806 48.9656 287.806 48.1976C287.764 47.4296 288.148 46.491 288.958 45.3816C290.025 43.931 291.625 42.3736 293.758 40.7096C293.801 39.5576 293.929 38.4056 294.142 37.2536C294.313 36.059 294.654 34.9283 295.166 33.8616C295.678 32.795 296.382 31.8136 297.278 30.9176C298.174 30.0216 299.369 29.3176 300.862 28.8056C301.289 28.6776 301.588 28.827 301.758 29.2536C301.886 29.723 301.737 30.0216 301.31 30.1496C300.158 30.5763 299.198 31.131 298.43 31.8136C297.662 32.4536 297.044 33.2003 296.574 34.0536C296.148 34.8643 295.849 35.7603 295.678 36.7416C295.465 37.6803 295.316 38.6403 295.23 39.6216C296.553 38.683 297.982 37.8083 299.518 36.9976C301.054 36.1443 302.612 35.3976 304.19 34.7576C305.769 34.075 307.326 33.5203 308.862 33.0936C310.441 32.6243 311.934 32.3256 313.342 32.1976C313.556 32.155 313.726 32.1976 313.854 32.3256C314.025 32.4536 314.132 32.6243 314.174 32.8376C314.174 33.051 314.11 33.243 313.982 33.4136C313.854 33.5416 313.684 33.6056 313.47 33.6056C312.062 33.7336 310.548 34.0536 308.926 34.5656C307.305 35.035 305.684 35.6323 304.062 36.3576C302.484 37.0403 300.926 37.8296 299.39 38.7256C297.854 39.6216 296.446 40.539 295.166 41.4776C295.166 41.7336 295.166 41.9896 295.166 42.2456C295.124 42.5016 295.102 42.7363 295.102 42.9496C295.06 44.187 295.017 45.3176 294.974 46.3416C294.889 47.4083 294.654 48.3043 294.27 49.0296C293.886 49.755 293.396 50.3096 292.798 50.6936C292.158 51.1203 291.476 51.3336 290.75 51.3336ZM293.694 42.6296C292.116 43.9096 290.942 45.1043 290.174 46.2136C289.236 47.4083 288.98 48.3896 289.406 49.1576C289.662 49.6696 290.11 49.9256 290.75 49.9256C291.689 49.9256 292.436 49.4136 292.99 48.3896C293.289 47.7923 293.481 47.003 293.566 46.0216C293.609 45.083 293.652 44.059 293.694 42.9496V42.6296ZM312.346 42.5656C311.706 42.5656 311.066 42.4376 310.426 42.1816C309.189 41.627 308.613 40.5816 308.698 39.0456C308.741 38.4483 308.912 37.8083 309.21 37.1256C309.466 36.443 309.829 35.803 310.298 35.2056C310.768 34.5656 311.344 34.011 312.026 33.5416C312.666 33.0296 313.37 32.6456 314.138 32.3896C314.181 32.1763 314.224 31.963 314.266 31.7496C314.309 31.4936 314.373 31.259 314.458 31.0456C314.757 30.0643 315.226 29.1256 315.866 28.2296C316.506 27.3336 317.232 26.587 318.042 25.9896C318.896 25.3496 319.792 24.9016 320.73 24.6456C321.669 24.3896 322.629 24.3896 323.61 24.6456C324.805 25.0296 325.509 25.819 325.722 27.0136C325.978 28.251 325.744 29.7016 325.018 31.3656C324.293 33.0296 323.312 34.6296 322.074 36.1656C323.141 36.123 324.25 35.995 325.402 35.7816C326.597 35.5683 327.77 35.3123 328.922 35.0136C330.074 34.6723 331.184 34.3096 332.25 33.9256C333.36 33.499 334.362 33.051 335.258 32.5816C335.429 32.4963 335.6 32.475 335.77 32.5176C335.984 32.5603 336.133 32.667 336.218 32.8376C336.432 33.2643 336.325 33.5843 335.898 33.7976C334.874 34.395 333.722 34.9283 332.442 35.3976C331.162 35.8243 329.84 36.2083 328.474 36.5496C327.152 36.891 325.829 37.1683 324.506 37.3816C323.184 37.5523 321.946 37.659 320.794 37.7016C320.368 38.1283 319.941 38.555 319.514 38.9816C319.13 39.3656 318.704 39.7283 318.234 40.0696C316.186 41.7336 314.224 42.5656 312.346 42.5656ZM314.074 33.9256C312.965 34.4376 312.048 35.227 311.322 36.2936C310.597 37.3176 310.213 38.2563 310.17 39.1096C310.085 40.0056 310.384 40.5816 311.066 40.8376C311.578 41.0936 312.133 41.2003 312.73 41.1576C313.328 41.0723 313.904 40.923 314.458 40.7096C315.013 40.4536 315.546 40.1763 316.058 39.8776C316.57 39.5363 316.997 39.2163 317.338 38.9176C317.85 38.5336 318.341 38.107 318.81 37.6376C318.384 37.595 317.978 37.531 317.594 37.4456C317.253 37.3603 316.933 37.275 316.634 37.1896C315.141 36.5923 314.288 35.5043 314.074 33.9256ZM322.074 25.9256C321.434 25.9256 320.773 26.0963 320.09 26.4376C319.45 26.7363 318.853 27.1416 318.298 27.6536C317.744 28.1656 317.253 28.763 316.826 29.4456C316.4 30.0856 316.058 30.7683 315.802 31.4936C315.717 31.7496 315.632 32.091 315.546 32.5176C315.461 32.9016 315.44 33.307 315.482 33.7336C315.525 34.1603 315.653 34.5656 315.866 34.9496C316.122 35.3336 316.528 35.6323 317.082 35.8456C317.85 36.1016 318.874 36.2296 320.154 36.2296C320.837 35.4616 321.456 34.6723 322.01 33.8616C322.565 33.0083 323.013 32.1976 323.354 31.4296C323.738 30.619 324.016 29.8723 324.186 29.1896C324.357 28.4643 324.4 27.8456 324.314 27.3336C324.186 26.6936 323.802 26.267 323.162 26.0536C322.992 25.9683 322.821 25.9256 322.65 25.9256C322.48 25.9256 322.288 25.9256 322.074 25.9256ZM329.929 45.5736C329.843 45.5736 329.715 45.531 329.545 45.4456C329.203 45.275 329.118 44.955 329.289 44.4856L335.241 32.9656C335.326 32.795 335.454 32.6883 335.625 32.6456C335.838 32.603 336.03 32.6243 336.201 32.7096C336.67 32.8803 336.777 33.2003 336.521 33.6696L333.385 39.8136C334.323 38.7896 335.369 37.723 336.521 36.6136C337.715 35.4616 338.91 34.4163 340.105 33.4776C341.342 32.539 342.579 31.7496 343.817 31.1096C345.054 30.4696 346.206 30.1283 347.273 30.0856C348.638 30.043 349.79 30.5123 350.729 31.4936C351.027 31.8776 351.006 32.219 350.665 32.5176C350.537 32.6456 350.366 32.7096 350.153 32.7096C349.939 32.7096 349.769 32.6456 349.641 32.5176C349.043 31.835 348.275 31.515 347.337 31.5576C346.313 31.6003 345.182 31.963 343.945 32.6456C342.75 33.3283 341.534 34.1816 340.297 35.2056C339.059 36.187 337.843 37.275 336.649 38.4696C335.497 39.6216 334.473 40.7096 333.577 41.7336C332.681 42.715 331.955 43.547 331.401 44.2296C330.803 44.9123 330.505 45.275 330.505 45.3176C330.334 45.4883 330.142 45.5736 329.929 45.5736ZM375.95 17.9256C376.42 18.0963 376.59 18.395 376.462 18.8216C376.377 19.2483 376.1 19.419 375.63 19.3336C375.588 19.3336 375.268 19.2696 374.67 19.1416C374.073 19.0136 373.262 18.8643 372.238 18.6936C371.214 18.4803 369.998 18.2456 368.59 17.9896C367.182 17.7336 365.646 17.499 363.982 17.2856C362.446 19.931 360.697 23.003 358.734 26.5016C356.772 30.0003 354.788 33.7123 352.782 37.6376C350.777 41.5203 348.836 45.4883 346.958 49.5416C345.081 53.595 343.46 57.499 342.094 61.2536C342.052 61.4243 341.966 61.531 341.838 61.5736C341.71 61.659 341.582 61.7016 341.454 61.7016H341.198C340.729 61.531 340.58 61.211 340.75 60.7416C342.116 57.0296 343.716 53.1683 345.55 49.1576C347.385 45.147 349.305 41.2216 351.31 37.3816C353.273 33.5416 355.214 29.8723 357.134 26.3736C359.097 22.875 360.868 19.7816 362.446 17.0936C359.46 16.7096 356.302 16.4323 352.974 16.2616C349.646 16.091 346.489 16.155 343.502 16.4536C340.473 16.7096 337.785 17.307 335.438 18.2456C333.092 19.1416 331.449 20.4856 330.51 22.2776C330.382 22.5336 330.169 22.6616 329.87 22.6616C329.742 22.6616 329.636 22.6403 329.55 22.5976C329.337 22.5123 329.209 22.3843 329.166 22.2136C329.124 22.0003 329.145 21.8083 329.23 21.6376C329.956 20.2723 331.022 19.1416 332.43 18.2456C333.796 17.3496 335.396 16.6456 337.23 16.1336C339.065 15.6216 341.07 15.259 343.246 15.0456C345.38 14.8323 347.598 14.747 349.902 14.7896C352.164 14.7896 354.425 14.8963 356.686 15.1096C358.99 15.2803 361.166 15.4936 363.214 15.7496C364.622 13.3176 365.753 11.419 366.606 10.0536C367.502 8.64562 367.972 7.92029 368.014 7.87762C368.1 7.66429 368.228 7.55762 368.398 7.55762C368.612 7.51496 368.804 7.53629 368.974 7.62162C369.358 7.87762 369.444 8.21896 369.23 8.64562C369.188 8.68829 368.761 9.34962 367.95 10.6296C367.182 11.9096 366.137 13.6803 364.814 15.9416C367.886 16.3683 370.425 16.795 372.43 17.2216C374.478 17.6056 375.652 17.8403 375.95 17.9256Z" fill="#FFFCF2"/>
</svg>
